# xmcd
#
# Track frame offsets:
# 150
# 13072
# 25761
# 40232
# 53683
# 65863
# 75784
# 91225
# 108313
# 123267
#
# Disc length: 1878 seconds
#
#
# Revision: 0
# Processed by: cddbd v1.5.1PL0 Copyright (c) Steve Scherf et al.
# Submitted via: FreeRIP 2.60 
#
DISCID=7107540a
DTITLE=Nicole Dumont - Nicole Dumont vit son Country
DYEAR=1993
DGENRE=Country
TTITLE0=Reviens-Moi
TTITLE1=Le printemps de mon bonheur
TTITLE2=moi ta maitresse
TTITLE3=J'aime ton amour
TTITLE4=en route vers l'avenir
TTITLE5=la vie me sourit
TTITLE6=Mon cadeau mes enfants
TTITLE7=Aimer Aimer
TTITLE8=Aujourd'hui
TTITLE9=Si t'aimer est un pèché
EXTD=
EXTT0=
EXTT1=
EXTT2=
EXTT3=
EXTT4=
EXTT5=
EXTT6=
EXTT7=
EXTT8=
EXTT9=
PLAYORDER=
